DBRep_DrawableShape

CASCADE Topology V1, (c) Matra-Datavision
Locations 0
Curve2ds 24
1 0 0 0 1 
1 0 0 1 0 
1 1 0 0 1 
1 0 1 1 0 
1 0 0 0 1 
1 0 0 1 0 
1 1 0 0 1 
1 0 1 1 0 
1 0 0 0 1 
1 0 0 1 0 
1 1 0 0 1 
1 0 1 1 0 
1 0 0 0 1 
1 0 0 1 0 
1 1 0 0 1 
1 0 1 1 0 
1 0 0 0 1 
1 0 0 1 0 
1 1 0 0 1 
1 0 1 1 0 
1 0 0 0 1 
1 0 0 1 0 
1 1 0 0 1 
1 0 1 1 0 
Curves 24
7 0 0  1 2 2  0 0 0  1 0 0 
 0 2 1 2
7 0 0  1 2 2  0 0 0  0 1 0 
 0 2 1 2
7 0 0  1 2 2  0 1 0  1 1 0 
 0 2 1 2
7 0 0  1 2 2  1 0 0  1 1 0 
 0 2 1 2
7 0 0  1 2 2  0 0 0  0 0 1 
 0 2 1 2
7 0 0  1 2 2  0 0 0  0 1 0 
 0 2 1 2
7 0 0  1 2 2  0 1 0  0 1 1 
 0 2 1 2
7 0 0  1 2 2  0 0 1  0 1 1 
 0 2 1 2
7 0 0  1 2 2  0 0 0  0 0 1 
 0 2 1 2
7 0 0  1 2 2  0 0 0  1 0 0 
 0 2 1 2
7 0 0  1 2 2  1 0 0  1 0 1 
 0 2 1 2
7 0 0  1 2 2  0 0 1  1 0 1 
 0 2 1 2
7 0 0  1 2 2  1 0 0  1 0 1 
 0 2 1 2
7 0 0  1 2 2  1 0 0  1 1 0 
 0 2 1 2
7 0 0  1 2 2  1 1 0  1 1 1 
 0 2 1 2
7 0 0  1 2 2  1 0 1  1 1 1 
 0 2 1 2
7 0 0  1 2 2  1 1 0  1 1 1 
 0 2 1 2
7 0 0  1 2 2  1 1 0  0 1 0 
 0 2 1 2
7 0 0  1 2 2  0 1 0  0 1 1 
 0 2 1 2
7 0 0  1 2 2  1 1 1  0 1 1 
 0 2 1 2
7 0 0  1 2 2  0 0 1  1 0 1 
 0 2 1 2
7 0 0  1 2 2  0 0 1  0 1 1 
 0 2 1 2
7 0 0  1 2 2  0 1 1  1 1 1 
 0 2 1 2
7 0 0  1 2 2  1 0 1  1 1 1 
 0 2 1 2
Polygon3D 0
PolygonOnTriangulations 0
Surfaces 6
9 0 0 0 0 1 1 2 2 2 2 0 0 0  1 0 0  
0 1 0  1 1 0  

0 2
1 2

0 2
1 2

9 0 0 0 0 1 1 2 2 2 2 0 0 0  0 0 1  
0 1 0  0 1 1  

0 2
1 2

0 2
1 2

9 0 0 0 0 1 1 2 2 2 2 0 0 0  0 0 1  
1 0 0  1 0 1  

0 2
1 2

0 2
1 2

9 0 0 0 0 1 1 2 2 2 2 1 0 0  1 0 1  
1 1 0  1 1 1  

0 2
1 2

0 2
1 2

9 0 0 0 0 1 1 2 2 2 2 1 1 0  1 1 1  
0 1 0  0 1 1  

0 2
1 2

0 2
1 2

9 0 0 0 0 1 1 2 2 2 2 0 0 1  1 0 1  
0 1 1  1 1 1  

0 2
1 2

0 2
1 2

Triangulations 0

TShapes 63
Ve
1e-07
0 0 0
0 0

0101101
*
Ve
1e-07
1 0 0
0 0

0101101
*
Ed
 1e-07 1 1 0
1  1 0 0 1
2  1 1 0 0 1
0

0101000
+63 0 -62 0 *
Ve
1e-07
0 1 0
0 0

0101101
*
Ed
 1e-07 1 1 0
1  2 0 0 1
2  2 1 0 0 1
0

0101000
+63 0 -60 0 *
Ve
1e-07
1 1 0
0 0

0101101
*
Ed
 1e-07 1 1 0
1  3 0 0 1
2  3 1 0 0 1
0

0101000
+60 0 -58 0 *
Ed
 1e-07 1 1 0
1  4 0 0 1
2  4 1 0 0 1
0

0101000
+62 0 -58 0 *
Wi

0101100
-61 0 +59 0 +57 0 -56 0 *
Fa
1  1e-07 1 0

0101000
+55 0 *
Ve
1e-07
0 0 0
0 0

0101101
*
Ve
1e-07
0 0 1
0 0

0101101
*
Ed
 1e-07 1 1 0
1  5 0 0 1
2  5 2 0 0 1
0

0101000
+53 0 -52 0 *
Ve
1e-07
0 1 0
0 0

0101101
*
Ed
 1e-07 1 1 0
1  6 0 0 1
2  6 2 0 0 1
0

0101000
+53 0 -50 0 *
Ve
1e-07
0 1 1
0 0

0101101
*
Ed
 1e-07 1 1 0
1  7 0 0 1
2  7 2 0 0 1
0

0101000
+50 0 -48 0 *
Ed
 1e-07 1 1 0
1  8 0 0 1
2  8 2 0 0 1
0

0101000
+52 0 -48 0 *
Wi

0101100
-51 0 +49 0 +47 0 -46 0 *
Fa
1  1e-07 2 0

0101000
+45 0 *
Ve
1e-07
0 0 0
0 0

0101101
*
Ve
1e-07
0 0 1
0 0

0101101
*
Ed
 1e-07 1 1 0
1  9 0 0 1
2  9 3 0 0 1
0

0101000
+43 0 -42 0 *
Ve
1e-07
1 0 0
0 0

0101101
*
Ed
 1e-07 1 1 0
1  10 0 0 1
2  10 3 0 0 1
0

0101000
+43 0 -40 0 *
Ve
1e-07
1 0 1
0 0

0101101
*
Ed
 1e-07 1 1 0
1  11 0 0 1
2  11 3 0 0 1
0

0101000
+40 0 -38 0 *
Ed
 1e-07 1 1 0
1  12 0 0 1
2  12 3 0 0 1
0

0101000
+42 0 -38 0 *
Wi

0101100
-41 0 +39 0 +37 0 -36 0 *
Fa
1  1e-07 3 0

0101000
+35 0 *
Ve
1e-07
1 0 0
0 0

0101101
*
Ve
1e-07
1 0 1
0 0

0101101
*
Ed
 1e-07 1 1 0
1  13 0 0 1
2  13 4 0 0 1
0

0101000
+33 0 -32 0 *
Ve
1e-07
1 1 0
0 0

0101101
*
Ed
 1e-07 1 1 0
1  14 0 0 1
2  14 4 0 0 1
0

0101000
+33 0 -30 0 *
Ve
1e-07
1 1 1
0 0

0101101
*
Ed
 1e-07 1 1 0
1  15 0 0 1
2  15 4 0 0 1
0

0101000
+30 0 -28 0 *
Ed
 1e-07 1 1 0
1  16 0 0 1
2  16 4 0 0 1
0

0101000
+32 0 -28 0 *
Wi

0101100
-31 0 +29 0 +27 0 -26 0 *
Fa
1  1e-07 4 0

0101000
+25 0 *
Ve
1e-07
1 1 0
0 0

0101101
*
Ve
1e-07
1 1 1
0 0

0101101
*
Ed
 1e-07 1 1 0
1  17 0 0 1
2  17 5 0 0 1
0

0101000
+23 0 -22 0 *
Ve
1e-07
0 1 0
0 0

0101101
*
Ed
 1e-07 1 1 0
1  18 0 0 1
2  18 5 0 0 1
0

0101000
+23 0 -20 0 *
Ve
1e-07
0 1 1
0 0

0101101
*
Ed
 1e-07 1 1 0
1  19 0 0 1
2  19 5 0 0 1
0

0101000
+20 0 -18 0 *
Ed
 1e-07 1 1 0
1  20 0 0 1
2  20 5 0 0 1
0

0101000
+22 0 -18 0 *
Wi

0101100
-21 0 +19 0 +17 0 -16 0 *
Fa
1  1e-07 5 0

0101000
+15 0 *
Ve
1e-07
0 0 1
0 0

0101101
*
Ve
1e-07
1 0 1
0 0

0101101
*
Ed
 1e-07 1 1 0
1  21 0 0 1
2  21 6 0 0 1
0

0101000
+13 0 -12 0 *
Ve
1e-07
0 1 1
0 0

0101101
*
Ed
 1e-07 1 1 0
1  22 0 0 1
2  22 6 0 0 1
0

0101000
+13 0 -10 0 *
Ve
1e-07
1 1 1
0 0

0101101
*
Ed
 1e-07 1 1 0
1  23 0 0 1
2  23 6 0 0 1
0

0101000
+10 0 -8 0 *
Ed
 1e-07 1 1 0
1  24 0 0 1
2  24 6 0 0 1
0

0101000
+12 0 -8 0 *
Wi

0101100
-11 0 +9 0 +7 0 -6 0 *
Fa
1  1e-07 6 0

0101000
+5 0 *
Sh

0101000
+54 0 +44 0 +34 0 +24 0 +14 0 +4 0 *
So

0100000
+3 0 *
Co

1100000
+2 0 *

+1 0 