DBRep_DrawableShape

CASCADE Topology V1, (c) Matra-Datavision
Locations 0
Curve2ds 24
1 0 0 0 1 
8 0 1
1 1 0 -1 -0 
1 0 0 1 0 
1 0 0 1 0 
1 1 0 0 1 
1 0 0 1 0 
1 0 1 1 0 
8 0 1
1 1 0 -1 -0 
1 0 0 0 1 
1 1 0 0 1 
1 1 0 0 1 
1 0 0 0 1 
1 0 1 1 0 
1 1 0 0 1 
1 0 0 0 1 
1 1 0 0 1 
1 1 0 0 1 
1 0 0 0 1 
1 0 0 0 1 
8 0 1
1 1 1 -1 -0 
1 0 1 1 0 
8 0 1
1 1 1 -1 -0 
1 0 1 1 0 
1 0 0 1 0 
Curves 12
7 0 0  2 3 2  1 1 1  3 1 2  6 1 1 
 0 3 1 3
7 0 0  2 3 2  1 1 1  1 2 1  1 3 2 
 0 3 1 3
7 0 0  2 3 2  1 3 2  3 3 2  6 3 0 
 0 3 1 3
7 0 0  2 3 2  6 1 1  6 2 0  6 3 0 
 0 3 1 3
7 0 0  1 2 2  6 1 1  6 1 0 
 0 2 1 2
7 0 0  1 2 2  1 1 1  1 1 0 
 0 2 1 2
7 0 0  2 3 2  6 1 0  3 1 1  1 1 0 
 0 3 1 3
7 0 0  1 2 2  1 3 2  1 3 1 
 0 2 1 2
7 0 0  1 2 2  6 3 0  6 3 -1 
 0 2 1 2
7 0 0  2 3 2  6 3 -1  3 3 1  1 3 1 
 0 3 1 3
7 0 0  2 3 2  1 1 0  1 2 0  1 3 1 
 0 3 1 3
7 0 0  2 3 2  6 3 -1  6 2 -1  6 1 0 
 0 3 1 3
Polygon3D 0
PolygonOnTriangulations 0
Surfaces 6
9 0 0 0 0 2 2 3 3 2 2 1 1 1  3 1 2  6 1 1  
1 2 1  3 2 2  6 2 0  
1 3 2  3 3 2  6 3 0  

0 3
1 3

0 3
1 3

9 0 0 0 0 2 1 3 2 2 2 6 1 1  6 1 0  
3 1 2  3 1 1  
1 1 1  1 1 0  

0 3
1 3

0 2
1 2

9 0 0 0 0 2 1 3 2 2 2 1 1 1  1 1 0  
1 2 1  1 2 0  
1 3 2  1 3 1  

0 3
1 3

0 2
1 2

9 0 0 0 0 2 1 3 2 2 2 1 3 2  1 3 1  
3 3 2  3 3 1  
6 3 0  6 3 -1  

0 3
1 3

0 2
1 2

9 0 0 0 0 2 1 3 2 2 2 6 3 0  6 3 -1  
6 2 0  6 2 -1  
6 1 1  6 1 0  

0 3
1 3

0 2
1 2

9 0 0 0 0 2 2 3 3 2 2 6 3 -1  3 3 1  1 3 1  
6 2 -1  3 2 1  1 2 0  
6 1 0  3 1 1  1 1 0  

0 3
1 3

0 3
1 3

Triangulations 0

TShapes 35
Ve
3e-07
1 1 1
0 0

0101101
*
Ve
3e-07
6 1 1
0 0

0101101
*
Ed
 1e-07 1 1 0
1  1 0 0 1
2  1 1 0 0 1
2  2 2 0 0 1
0

0101000
+35 0 -34 0 *
Ve
3e-07
1 3 2
0 0

0101101
*
Ed
 1e-07 1 1 0
1  2 0 0 1
2  3 1 0 0 1
2  4 3 0 0 1
0

0101000
+35 0 -32 0 *
Ve
3e-07
6 3 0
0 0

0101101
*
Ed
 1e-07 1 1 0
1  3 0 0 1
2  5 1 0 0 1
2  6 4 0 0 1
0

0101000
+32 0 -30 0 *
Ed
 1e-07 1 1 0
1  4 0 0 1
2  7 1 0 0 1
2  8 5 0 0 1
0

0101000
+34 0 -30 0 *
Wi

0101000
-33 0 +31 0 +29 0 -28 0 *
Fa
1  1e-07 1 0

0111000
+27 0 *
Ve
3e-07
6 1 0
0 0

0101101
*
Ed
 1e-07 1 1 0
1  5 0 0 1
2  9 2 0 0 1
2  10 5 0 0 1
0

0101000
+34 0 -25 0 *
Ve
3e-07
1 1 0
0 0

0101101
*
Ed
 1e-07 1 1 0
1  6 0 0 1
2  11 2 0 0 1
2  12 3 0 0 1
0

0101000
+35 0 -23 0 *
Ed
 1e-07 1 1 0
1  7 0 0 1
2  13 2 0 0 1
2  14 6 0 0 1
0

0101000
+25 0 -23 0 *
Wi

0101000
-24 0 -33 0 +22 0 -21 0 *
Fa
1  1e-07 2 0

0111000
+20 0 *
Ve
3e-07
1 3 1
0 0

0101101
*
Ed
 1e-07 1 1 0
1  8 0 0 1
2  15 4 0 0 1
2  16 3 0 0 1
0

0101000
+32 0 -18 0 *
Ve
3e-07
6 3 -1
0 0

0101101
*
Ed
 1e-07 1 1 0
1  9 0 0 1
2  17 4 0 0 1
2  18 5 0 0 1
0

0101000
+30 0 -16 0 *
Ed
 1e-07 1 1 0
1  10 0 0 1
2  19 6 0 0 1
2  20 4 0 0 1
0

0101000
+16 0 -18 0 *
Wi

0101000
-17 0 +29 0 +15 0 +14 0 *
Fa
1  1e-07 4 0

0111000
+13 0 *
Ed
 1e-07 1 1 0
1  11 0 0 1
2  21 3 0 0 1
2  22 6 0 0 1
0

0101000
+23 0 -18 0 *
Wi

0101000
-22 0 +31 0 +17 0 -11 0 *
Fa
1  1e-07 3 0

0111000
+10 0 *
Ed
 1e-07 1 1 0
1  12 0 0 1
2  23 5 0 0 1
2  24 6 0 0 1
0

0101000
+16 0 -25 0 *
Wi

0101000
-15 0 -28 0 +24 0 -8 0 *
Fa
1  1e-07 5 0

0111000
+7 0 *
Wi

0101000
-14 0 +8 0 +21 0 +11 0 *
Fa
1  1e-07 6 0

0111000
+5 0 *
Sh

0101100
+26 0 -19 0 -12 0 -9 0 -6 0 -4 0 *
So

0100000
+3 0 *
Co

1100000
+2 0 *

+1 0 