DBRep_DrawableShape

CASCADE Topology V1, (c) Matra-Datavision
Locations 1
1
              1               0               0             500 
              0               1               0               0 
              0               0               1               0 
Curve2ds 48
1 0 0 1 0 
1 0 0 1 0 
1 50 0 0 -1 
1 0 0 0 1 
1 0 -100 1 0 
1 0 0 1 0 
1 0 0 0 -1 
1 0 0 0 1 
1 0 0 0 1 
1 0 0 1 0 
1 0 0 1 0 
1 0 100 1 0 
1 50 0 0 1 
1 0 0 1 0 
1 0 0 0 1 
1 0 100 1 0 
1 0 0 0 -1 
1 100 0 0 1 
1 0 -100 1 0 
1 0 100 1 0 
1 50 0 0 1 
1 0 100 1 0 
1 50 0 0 -1 
1 100 0 0 1 
1 0 0 0 -1 
1 0 0 0 1 
1 0 0 0 1 
1 0 100 1 0 
1 0 0 0 -1 
1 100 0 0 1 
1 0 0 0 1 
1 0 0 1 0 
1 0 0 1 0 
1 0 0 1 0 
1 50 0 0 -1 
1 0 0 0 1 
1 0 -100 1 0 
1 0 0 1 0 
1 0 0 1 0 
1 0 100 1 0 
1 50 0 0 1 
1 0 0 1 0 
1 50 0 0 -1 
1 100 0 0 1 
1 0 -100 1 0 
1 0 100 1 0 
1 50 0 0 1 
1 0 100 1 0 
Curves 24
1 0 0 0 0 0 1 
1 0 0 50 -0 1 0 
1 0 100 0 0 0 1 
1 0 0 0 -0 1 0 
1 0 0 0 1 0 -0 
1 100 0 0 0 0 1 
1 0 0 50 1 0 -0 
1 0 100 0 1 0 -0 
1 100 0 0 -0 1 0 
1 100 100 0 0 0 1 
1 0 100 50 1 0 -0 
1 100 0 50 0 1 0 
1 0 0 50 -0 1 0 
1 0 100 50 1 0 -0 
1 100 0 50 -0 1 0 
1 0 0 50 1 0 -0 
1 0 0 50 0 0 1 
1 0 0 100 -0 1 0 
1 0 100 50 0 0 1 
1 100 0 50 0 0 1 
1 0 0 100 1 0 -0 
1 100 0 100 0 1 0 
1 100 100 50 0 0 1 
1 0 100 100 1 0 -0 
Polygon3D 0
PolygonOnTriangulations 24
2 1 4 
p 0.4000000008 1 0 50 
2 1 2 
p 0.4000000008 1 0 100 
2 1 4 
p 0.4000000008 1 0 50 
2 1 2 
p 0.4000000008 1 0 100 
2 1 4 
p 0.4000000008 1 0 100 
2 1 2 
p 0.4000000008 1 0 50 
2 1 4 
p 0.4000000008 1 0 100 
2 1 2 
p 0.4000000008 1 0 100 
2 1 4 
p 0.4000000008 1 0 100 
2 4 3 
p 0.4000000008 1 0 50 
2 2 3 
p 0.4000000008 1 0 100 
2 4 3 
p 0.4000000008 1 0 100 
2 1 4 
p 0.4000000008 1 0 100 
2 1 2 
p 0.4000000008 1 0 100 
2 1 4 
p 0.4000000008 1 0 100 
2 1 2 
p 0.4000000008 1 0 100 
2 1 4 
p 0.4000000008 1 0 50 
2 1 2 
p 0.4000000008 1 0 100 
2 1 4 
p 0.4000000008 1 0 50 
2 1 2 
p 0.4000000008 1 0 50 
2 1 4 
p 0.4000000008 1 0 100 
2 4 3 
p 0.4000000008 1 0 100 
2 2 3 
p 0.4000000008 1 0 50 
2 4 3 
p 0.4000000008 1 0 100 
Surfaces 12
1 0 0 0 1 0 -0 0 0 1 0 -1 0 
1 0 0 0 -0 1 0 0 0 1 1 0 -0 
1 0 0 50 0 0 1 1 0 -0 -0 1 0 
1 0 100 0 -0 1 0 0 0 1 1 0 -0 
1 0 0 0 0 0 1 1 0 -0 -0 1 0 
1 100 0 0 1 0 -0 0 0 1 0 -1 0 
1 0 0 50 1 0 -0 0 0 1 0 -1 0 
1 0 0 50 0 0 1 1 0 -0 -0 1 0 
1 0 100 50 -0 1 0 0 0 1 1 0 -0 
1 100 0 50 1 0 -0 0 0 1 0 -1 0 
1 0 0 50 -0 1 0 0 0 1 1 0 -0 
1 0 0 100 0 0 1 1 0 -0 -0 1 0 
Triangulations 11
4 2 1 0
0 0 0 0 0 50 0 100 50 0 100 0 0 0 50 0 50 -100 0 -100 2 4 3 2 1 4 
4 2 1 0
0 0 0 100 0 0 100 0 50 0 0 50 0 0 0 100 50 100 50 0 3 2 1 3 1 4 
4 2 1 0
0 0 50 0 100 50 100 100 50 100 0 50 0 0 0 100 100 100 100 0 3 2 1 3 1 4 
4 2 1 0
0 100 0 100 100 0 100 100 50 0 100 50 0 0 0 100 50 100 50 0 3 2 1 3 1 4 
4 2 1 0
0 0 0 0 100 0 100 100 0 100 0 0 0 0 0 100 100 100 100 0 3 2 1 3 1 4 
4 2 1 0
100 0 0 100 0 50 100 100 50 100 100 0 0 0 50 0 50 -100 0 -100 2 4 3 2 1 4 
4 2 1 0
0 0 50 0 0 100 0 100 100 0 100 50 0 0 50 0 50 -100 0 -100 2 4 3 2 1 4 
4 2 1 0
0 100 50 100 100 50 100 100 100 0 100 100 0 0 0 100 50 100 50 0 3 2 1 3 1 4 
4 2 1 0
100 0 50 100 0 100 100 100 100 100 100 50 0 0 50 0 50 -100 0 -100 2 4 3 2 1 4 
4 2 1 0
0 0 50 100 0 50 100 0 100 0 0 100 0 0 0 100 50 100 50 0 3 2 1 3 1 4 
4 2 1 0
0 0 100 0 100 100 100 100 100 100 0 100 0 0 0 100 100 100 100 0 3 2 1 3 1 4 

TShapes 61
Ve
1e-07
0 0 50
0 0

0101101
*
Ve
1e-07
0 0 0
0 0

0101101
*
Ed
 1e-07 1 1 0
1  1 0 0 50
2  1 1 0 0 50
2  2 2 0 0 50
6  1 2 0
0

0101000
-61 0 +60 0 *
Ve
1e-07
0 100 50
0 0

0101101
*
Ed
 1e-07 1 1 0
1  2 0 0 100
2  3 1 0 0 100
2  4 3 0 0 100
6  2 3 0
0

0101000
-58 0 +61 0 *
Ve
1e-07
0 100 0
0 0

0101101
*
Ed
 1e-07 1 1 0
1  3 0 0 50
2  5 1 0 0 50
2  6 4 0 0 50
6  3 4 0
0

0101000
-58 0 +56 0 *
Ed
 1e-07 1 1 0
1  4 0 0 100
2  7 1 0 0 100
2  8 5 0 0 100
6  4 5 0
0

0101000
-56 0 +60 0 *
Wi

0101000
-59 0 -57 0 +55 0 +54 0 *
Fa
0  1e-07 1 0
2  1
0101000
+53 0 *
Ve
1e-07
100 0 0
0 0

0101101
*
Ed
 1e-07 1 1 0
1  5 0 0 100
2  9 2 0 0 100
2  10 5 0 0 100
6  5 5 0
0

0101000
-51 0 +60 0 *
Ve
1e-07
100 0 50
0 0

0101101
*
Ed
 1e-07 1 1 0
1  6 0 0 50
2  11 6 0 0 50
2  12 2 0 0 50
6  6 6 0
0

0101000
-49 0 +51 0 *
Ed
 1e-07 1 1 0
1  7 0 0 100
2  13 2 0 0 100
2  14 3 0 0 100
6  7 3 0
0

0101000
-49 0 +61 0 *
Wi

0101000
-50 0 -48 0 +47 0 +59 0 *
Fa
0  1e-07 2 0
2  2
0101000
+46 0 *
Ve
1e-07
100 100 0
0 0

0101101
*
Ed
 1e-07 1 1 0
1  8 0 0 100
2  15 4 0 0 100
2  16 5 0 0 100
6  8 4 0
0

0101000
-44 0 +56 0 *
Ed
 1e-07 1 1 0
1  9 0 0 100
2  17 6 0 0 100
2  18 5 0 0 100
6  9 6 0
0

0101000
-44 0 +51 0 *
Wi

0101000
-54 0 -43 0 +42 0 +50 0 *
Fa
0  1e-07 5 0
2  5
0101000
+41 0 *
Ve
1e-07
100 100 50
0 0

0101101
*
Ed
 1e-07 1 1 0
1  10 0 0 50
2  19 6 0 0 50
2  20 4 0 0 50
6  10 6 0
0

0101000
-39 0 +44 0 *
Ed
 1e-07 1 1 0
1  11 0 0 100
2  21 4 0 0 100
2  22 3 0 0 100
6  11 3 0
0

0101000
-39 0 +58 0 *
Wi

0101000
-43 0 -38 0 +37 0 +55 0 *
Fa
0  1e-07 4 0
2  4
0101000
+36 0 *
Ed
 1e-07 1 1 0
1  12 0 0 100
2  23 6 0 0 100
2  24 3 0 0 100
6  12 3 0
0

0101000
-39 0 +49 0 *
Wi

0101000
-48 0 -34 0 +38 0 +42 0 *
Fa
0  1e-07 6 0
2  6
0101000
+33 0 *
Wi

0101000
-57 0 -37 0 +34 0 +47 0 *
Ed
 1e-07 1 1 0
1  13 0 0 100
2  25 7 0 0 100
2  26 8 0 0 100
4 CN 3 0 3 0
6  13 7 0
0

0101000
-58 0 +61 0 *
Ed
 1e-07 1 1 0
1  14 0 0 100
2  27 9 0 0 100
2  28 8 0 0 100
4 CN 3 0 3 0
6  14 8 0
0

0101000
-39 0 +58 0 *
Ed
 1e-07 1 1 0
1  15 0 0 100
2  29 10 0 0 100
2  30 8 0 0 100
4 CN 3 0 3 0
6  15 9 0
0

0101000
-39 0 +49 0 *
Ed
 1e-07 1 1 0
1  16 0 0 100
2  31 11 0 0 100
2  32 8 0 0 100
4 CN 3 0 3 0
6  16 10 0
0

0101000
-49 0 +61 0 *
Wi

0101100
+30 0 +29 0 -28 0 -27 0 *
Fa
0  1e-07 3 0
2  3
0101000
+31 0 +26 0 *
Ve
1e-07
0 0 100
0 0

0101101
*
Ed
 1e-07 1 1 0
1  17 0 0 50
2  33 7 0 0 50
2  34 11 0 0 50
6  17 10 0
0

0101000
-24 0 +61 0 *
Ve
1e-07
0 100 100
0 0

0101101
*
Ed
 1e-07 1 1 0
1  18 0 0 100
2  35 7 0 0 100
2  36 12 0 0 100
6  18 11 0
0

0101000
-22 0 +24 0 *
Ed
 1e-07 1 1 0
1  19 0 0 50
2  37 7 0 0 50
2  38 9 0 0 50
6  19 8 0
0

0101000
-22 0 +58 0 *
Wi

0101000
-23 0 -21 0 +20 0 +30 0 *
Fa
0  1e-07 7 0
2  7
0101000
+19 0 *
Ve
1e-07
100 0 100
0 0

0101101
*
Ed
 1e-07 1 1 0
1  20 0 0 50
2  39 10 0 0 50
2  40 11 0 0 50
6  20 9 0
0

0101000
-17 0 +49 0 *
Ed
 1e-07 1 1 0
1  21 0 0 100
2  41 11 0 0 100
2  42 12 0 0 100
6  21 11 0
0

0101000
-17 0 +24 0 *
Wi

0101000
-27 0 -16 0 +15 0 +23 0 *
Fa
0  1e-07 11 0
2  10
0101000
+14 0 *
Ve
1e-07
100 100 100
0 0

0101101
*
Ed
 1e-07 1 1 0
1  22 0 0 100
2  43 10 0 0 100
2  44 12 0 0 100
6  22 11 0
0

0101000
-12 0 +17 0 *
Ed
 1e-07 1 1 0
1  23 0 0 50
2  45 10 0 0 50
2  46 9 0 0 50
6  23 8 0
0

0101000
-12 0 +39 0 *
Wi

0101000
-16 0 -11 0 +10 0 +28 0 *
Fa
0  1e-07 10 0
2  9
0101000
+9 0 *
Ed
 1e-07 1 1 0
1  24 0 0 100
2  47 9 0 0 100
2  48 12 0 0 100
6  24 8 0
0

0101000
-12 0 +22 0 *
Wi

0101000
-21 0 -7 0 +11 0 +15 0 *
Fa
0  1e-07 12 0
2  11
0101000
+6 0 *
Wi

0101000
-29 0 -10 0 +7 0 +20 0 *
Fa
0  1e-07 9 0
2  8
0101000
+4 0 *
Sh

0101000
-52 0 -45 0 -40 0 +35 0 +32 0 +25 0 -18 0 -13 0 +8 0 +5 0 
+3 0 *
So

1100000
+2 0 *

+1 1 