DBRep_DrawableShape

CASCADE Topology V1, (c) Matra-Datavision
Locations 0
Curve2ds 29
1 170 0 0 -1 
1 0 0 0 1 
1 0 0 1 0 
1 0 0 1 0 
1 0 0 0 -1 
1 0 0 0 1 
1 81.500000000000014 -116.75000000000003 0.89442719099991597 0.44721359549995798 
1 0 -200 1 0 
1 0 0 1 0 
1 0 0 1 0 
1 0 150 1 0 
1 0 0 0 -1 
1 150 0 0 1 
1 51.500000000000007 -56.750000000000014 0.89442719099991597 0.44721359549995798 
1 170 0 0 -1 
1 150 0 0 1 
1 0 -200 1 0 
1 0 150 1 0 
1 0 0 0 1 
1 0 0 1 0 
1 170 0 0 1 
1 0 0 1 0 
1 152.50000000000011 162.50000000000011 -0.70710678118654757 0.70710678118654757 
1 0 0 0 1 
1 0 200 1 0 
1 170 0 0 1 
1 0 200 1 0 
1 89.500000000000014 112.75000000000003 -0.89442719099991597 0.44721359549995798 
1 55.5 44.75 -0.89442719099991597 0.44721359549995798 
Curves 17
1 -100 -60 90 -0 1 0 
1 -100 -60 -80 0 0 1 
1 -100 -60 -80 -0 1 0 
1 -100.00000000000003 56.750000000000028 1.5000000000000142 0 -0.44721359549995793 0.89442719099991586 
1 -100 140 -80 0 0 1 
1 50 -60 -80 0 0 1 
1 50 -60 -80 -0 1 0 
1 50.000000000000014 -3.2499999999999893 -28.499999999999993 0 -0.44721359549995793 0.89442719099991586 
1 50 -60 90 0 1 0 
1 50 140 -80 0 0 1 
1 -100 -60 -80 1 0 -0 
1 -100 -60 90 1 0 -0 
1 62.500000000000099 -60.000000000000028 72.500000000000099 0.70710678118654757 0 -0.70710678118654757 
1 -100 140 -80 1 0 -0 
1 -100 140 90 1 0 -0 
1 -10.499999999999986 52.750000000000028 -80.000000000000028 -0.89442719099991586 0.44721359549995793 0 
1 -44.5 -15.249999999999996 90.000000000000028 -0.89442719099991586 0.44721359549995793 0 
Polygon3D 0
PolygonOnTriangulations 44
2 1 2 
p 0.8000000008 1 0 72.5 
2 1 2 
p 0.8000000008 1 0 72.5 
2 3 1 
p 0.8000000008 1 0 170 
2 3 4 
p 0.8000000008 1 0 170 
2 3 4 
p 0.8000000008 1 0 157.5 
2 1 2 
p 0.8000000008 1 0 157.5 
2 4 2 
p 0.8000000008 1 -91.1197700831165 98.9460080043657 
2 4 1 
p 0.8000000008 1 -91.1197700831165 98.9460080043657 
2 1 2 
p 0.8000000008 1 72.5 200 
2 1 2 
p 0.8000000008 1 72.5 200 
2 3 2 
p 0.8000000008 1 0 170 
2 1 4 
p 0.8000000008 1 0 170 
2 4 3 
p 0.8000000008 1 157.5 200 
2 1 2 
p 0.8000000008 1 157.5 200 
2 1 2 
p 0.8000000008 1 0 165 
2 1 2 
p 0.8000000008 1 0 165 
2 1 3 
p 0.8000000008 1 0 82.5 
2 3 4 
p 0.8000000008 1 0 82.5 
2 3 2 
p 0.8000000008 1 -57.5787504206196 126.896857723113 
2 5 1 
p 0.8000000008 1 -57.5787504206196 126.896857723113 
2 1 2 
p 0.8000000008 1 165 170 
2 1 2 
p 0.8000000008 1 165 170 
2 2 3 
p 0.8000000008 1 0 200 
2 4 3 
p 0.8000000008 1 0 200 
2 4 3 
p 0.8000000008 1 0 170 
2 2 3 
p 0.8000000008 1 0 170 
2 5 4 
p 0.8000000008 1 82.5 200 
2 4 3 
p 0.8000000008 1 82.5 200 
2 3 1 
p 0.8000000008 1 0 150 
2 1 3 
p 0.8000000008 1 0 150 
2 4 5 
p 0.8000000008 1 0 145 
2 1 3 
p 0.8000000008 1 0 145 
2 5 2 
p 0.8000000008 1 -24.748737341529 -17.6776695296638 
2 3 1 
p 0.8000000008 1 -24.748737341529 -17.6776695296638 
2 3 2 
p 0.8000000008 1 145 150 
2 5 4 
p 0.8000000008 1 145 150 
2 1 2 
p 0.8000000008 1 0 150 
2 2 3 
p 0.8000000008 1 0 150 
2 4 3 
p 0.8000000008 1 0 150 
2 2 3 
p 0.8000000008 1 0 150 
2 4 2 
p 0.8000000008 1 -67.6410563193686 100.064041993116 
2 4 1 
p 0.8000000008 1 -67.6410563193686 100.064041993116 
2 3 2 
p 0.8000000008 1 -100.064041993116 62.0508863756192 
2 5 1 
p 0.8000000008 1 -100.064041993116 62.0508863756192 
Surfaces 6
1 -100 -60 -80 1 0 -0 0 0 1 0 -1 0 
1 -100 -60 90 0 0 1 1 0 -0 -0 1 0 
1 -100 -60 -80 -0 1 0 0 0 1 1 0 -0 
1 -100 -60 -80 0 0 1 1 0 -0 -0 1 0 
1 -100 140 -80 -0 1 0 0 0 1 1 0 -0 
1 50 -60 -80 1 0 -0 0 0 1 0 -1 0 
Triangulations 11
4 2 1 0
-100 -60 90 -100 12.5 90 -100 -60 -80 -100 97.5 -80 170 0 170 -72.5 0 0 0 -157.5 2 3 4 1 3 2 
3 1 1 0
-100 -60 90 -100 12.5 90 45 -60 90 0 0 0 72.5 145 0 3 2 1 
5 3 1 7.105427357601e-15
50 -60 -80 50 -60 85 -100 -60 -80 -100 -60 90 45 -60 90 0 150 165 150 0 0 170 0 170 145 2 1 3 2 3 4 2 4 5 
4 2 1 0
-100 -60 -80 -100 97.5 -80 50 -60 -80 50 22.5 -80 0 0 0 157.5 150 0 150 82.5 4 2 1 4 1 3 
4 2 1 0
-100 12.5 90 -100 140 90 -100 140 -80 -100 97.5 -80 170 -72.5 170 -200 0 -200 0 -157.5 2 4 3 1 4 2 
5 3 1 7.105427357601e-15
-100 12.5 90 -100 140 90 50 140 90 50 -60 90 45 -60 90 0 72.5 0 200 150 200 150 0 145 0 3 2 1 3 5 4 3 1 5 
4 2 1 0
-100 140 -80 50 140 -80 50 140 90 -100 140 90 0 0 0 150 170 150 170 0 3 2 1 3 1 4 
4 2 1 0
-100 97.5 -80 -100 140 -80 50 140 -80 50 22.5 -80 0 157.5 0 200 150 200 150 82.5 3 2 1 3 1 4 
3 1 1 0
50 -60 -80 50 -60 85 50 22.5 -80 0 0 165 0 0 -82.5 2 1 3 
5 3 1 0
50 -60 85 50 -60 90 50 140 90 50 140 -80 50 22.5 -80 165 0 170 0 170 -200 0 -200 0 -82.5 3 5 4 1 5 3 2 1 3 
3 1 1 0
50 -60 85 50 -60 90 45 -60 90 165 150 170 150 170 145 2 1 3 

TShapes 59
Ve
2.00001e-07
-100 12.5 90
0 0

0101101
*
Ve
1e-07
-100 -60 90
0 0

0101101
*
Ed
 1e-07 1 1 0
1  1 0 0 72.5
2  1 1 0 0 72.5
2  2 2 0 0 72.5
6  1 1 0
6  2 2 0
0

0101000
-59 0 +58 0 *
Ve
1e-07
-100 -60 -80
0 0

0101101
*
Ed
 1e-07 1 1 0
1  2 0 0 170
2  3 1 0 0 170
2  4 3 0 0 170
6  3 1 0
6  4 3 0
0

0101000
-58 0 +56 0 *
Ve
2.00001e-07
-100 97.5 -80
0 0

0101101
*
Ed
 1e-07 1 1 0
1  3 0 0 157.5
2  5 1 0 0 157.5
2  6 4 0 0 157.5
6  5 1 0
6  6 4 0
0

0101000
-54 0 +56 0 *
Ed
 1e-07 1 1 0
1  4 0 -91.1197700831165 98.9460080043657
2  7 1 0 -91.1197700831165 98.9460080043657
4 CN 1 0 1 0
6  7 1 0
6  8 5 0
0

0101000
+54 0 -59 0 *
Wi

0101000
-57 0 -55 0 +53 0 +52 0 *
Fa
0  1e-07 1 0
2  1
0101000
+51 0 *
Ve
1e-07
-100 140 90
0 0

0101101
*
Ed
 1e-07 1 1 0
1  1 0 72.5 200
2  1 1 0 72.5 200
2  2 2 0 72.5 200
6  9 5 0
6  10 6 0
0

0101000
+59 0 -49 0 *
Ve
1e-07
-100 140 -80
0 0

0101101
*
Ed
 1e-07 1 1 0
1  5 0 0 170
2  8 1 0 0 170
2  9 5 0 0 170
6  11 5 0
6  12 7 0
0

0101000
-49 0 +47 0 *
Ed
 1e-07 1 1 0
1  3 0 157.5 200
2  5 1 0 157.5 200
2  6 4 0 157.5 200
6  13 5 0
6  14 8 0
0

0101000
+54 0 -47 0 *
Wi

0101000
-48 0 +46 0 +45 0 -52 0 *
Fa
0  1e-07 1 0
2  5
0101000
+44 0 *
Ve
2.00001e-07
50 -60 85
0 0

0101101
*
Ve
1e-07
50 -60 -80
0 0

0101101
*
Ed
 1e-07 1 1 0
1  6 0 0 165
2  10 6 0 0 165
2  11 3 0 0 165
6  15 9 0
6  16 3 0
0

0101000
-42 0 +41 0 *
Ve
2.00001e-07
50 22.5 -80
0 0

0101101
*
Ed
 1e-07 1 1 0
1  7 0 0 82.5
2  12 6 0 0 82.5
2  13 4 0 0 82.5
6  17 9 0
6  18 4 0
0

0101000
-39 0 +41 0 *
Ed
 1e-07 1 1 0
1  8 0 -57.5787504206196 126.896857723113
2  14 6 0 -57.5787504206196 126.896857723113
4 CN 6 0 6 0
6  19 9 0
6  20 10 0
0

0101000
+39 0 -42 0 *
Wi

0101000
-40 0 +38 0 +37 0 *
Fa
0  1e-07 6 0
2  9
0101000
+36 0 *
Ve
1e-07
50 -60 90
0 0

0101101
*
Ed
 1e-07 1 1 0
1  6 0 165 170
2  10 6 0 165 170
2  11 3 0 165 170
6  21 10 0
6  22 11 0
0

0101000
+42 0 -34 0 *
Ve
1e-07
50 140 90
0 0

0101101
*
Ed
 1e-07 1 1 0
1  9 0 0 200
2  15 6 0 0 200
2  16 2 0 0 200
6  23 10 0
6  24 6 0
0

0101000
-32 0 +34 0 *
Ve
1e-07
50 140 -80
0 0

0101101
*
Ed
 1e-07 1 1 0
1  10 0 0 170
2  17 6 0 0 170
2  18 5 0 0 170
6  25 10 0
6  26 7 0
0

0101000
-32 0 +30 0 *
Ed
 1e-07 1 1 0
1  7 0 82.5 200
2  12 6 0 82.5 200
2  13 4 0 82.5 200
6  27 10 0
6  28 8 0
0

0101000
+39 0 -30 0 *
Wi

0101000
-33 0 -31 0 +29 0 +28 0 -37 0 *
Fa
0  1e-07 6 0
2  10
0101000
+27 0 *
Ed
 1e-07 1 1 0
1  11 0 0 150
2  19 3 0 0 150
2  20 4 0 0 150
6  29 3 0
6  30 4 0
0

0101000
-41 0 +56 0 *
Ve
2.00001e-07
45 -60 90
0 0

0101101
*
Ed
 1e-07 1 1 0
1  12 0 0 145
2  21 3 0 0 145
2  22 2 0 0 145
6  31 3 0
6  32 2 0
0

0101000
-24 0 +58 0 *
Ed
 1e-07 1 1 0
1  13 0 -24.748737341529 -17.6776695296638
2  23 3 0 -24.748737341529 -17.6776695296638
4 CN 3 0 3 0
6  33 3 0
6  34 11 0
0

0101000
+24 0 -42 0 *
Wi

0101000
-40 0 -25 0 +55 0 +23 0 +22 0 *
Fa
0  1e-07 3 0
2  3
0101000
+21 0 *
Ed
 1e-07 1 1 0
1  12 0 145 150
2  21 3 0 145 150
2  22 2 0 145 150
6  35 11 0
6  36 6 0
0

0101000
+24 0 -34 0 *
Wi

0101000
-33 0 +19 0 -22 0 *
Fa
0  1e-07 3 0
2  11
0101000
+18 0 *
Ed
 1e-07 1 1 0
1  14 0 0 150
2  24 5 0 0 150
2  25 4 0 0 150
6  37 7 0
6  38 8 0
0

0101000
-30 0 +47 0 *
Ed
 1e-07 1 1 0
1  15 0 0 150
2  26 5 0 0 150
2  27 2 0 0 150
6  39 7 0
6  40 6 0
0

0101000
-32 0 +49 0 *
Wi

0101000
-16 0 -29 0 +15 0 +46 0 *
Fa
0  1e-07 5 0
2  7
0101000
+14 0 *
Ed
 1e-07 1 1 0
1  16 0 -67.6410563193686 100.064041993116
2  28 4 0 -67.6410563193686 100.064041993116
4 CN 4 0 4 0
6  41 4 0
6  42 8 0
0

0101000
+39 0 -54 0 *
Wi

0101000
-53 0 +25 0 +38 0 +12 0 *
Fa
0  1e-07 4 0
2  4
0101000
+11 0 *
Wi

0101000
-45 0 -16 0 +28 0 -12 0 *
Fa
0  1e-07 4 0
2  8
0101000
+9 0 *
Ed
 1e-07 1 1 0
1  17 0 -100.064041993116 62.0508863756192
2  29 2 0 -100.064041993116 62.0508863756192
4 CN 2 0 2 0
6  43 2 0
6  44 6 0
0

0101000
+24 0 -59 0 *
Wi

0101000
-57 0 +23 0 +7 0 *
Fa
0  1e-07 2 0
2  2
0101000
+6 0 *
Wi

0101000
-48 0 -15 0 +31 0 +19 0 -7 0 *
Fa
0  1e-07 2 0
2  6
0101000
+4 0 *
Sh

0101000
-50 0 -43 0 +35 0 +26 0 -20 0 -17 0 +13 0 -10 0 -8 0 +5 0 
+3 0 *
So

1100000
+2 0 *

+1 0 